<mxfile host="app.diagrams.net" modified="2023-12-21T04:26:21.160Z" agent="Mozilla/5.0 (Windows NT 10.0; Win64; x64) AppleWebKit/537.36 (KHTML, like Gecko) Chrome/120.0.0.0 Safari/537.36" etag="pObORaC2Ysrj9SF15RGn" version="22.1.11" type="github">
  <diagram name="Page-1" id="2YBvvXClWsGukQMizWep">
    <mxGraphModel dx="704" dy="355" grid="1" gridSize="10" guides="1" tooltips="1" connect="1" arrows="1" fold="1" page="1" pageScale="1" pageWidth="850" pageHeight="1100" math="0" shadow="0">
      <root>
        <mxCell id="0" />
        <mxCell id="1" parent="0" />
        <mxCell id="PoQftCL3mDEPjElPRBC5-1" value="User Penjahit" style="shape=umlActor;verticalLabelPosition=bottom;verticalAlign=top;html=1;outlineConnect=0;" vertex="1" parent="1">
          <mxGeometry x="40" y="60" width="30" height="60" as="geometry" />
        </mxCell>
        <mxCell id="PoQftCL3mDEPjElPRBC5-2" value="" style="rounded=0;whiteSpace=wrap;html=1;fillColor=#000000;" vertex="1" parent="1">
          <mxGeometry x="50" y="150" width="10" height="700" as="geometry" />
        </mxCell>
        <mxCell id="PoQftCL3mDEPjElPRBC5-3" value="" style="endArrow=classic;html=1;rounded=0;strokeWidth=2;" edge="1" parent="1">
          <mxGeometry width="50" height="50" relative="1" as="geometry">
            <mxPoint x="50" y="150" as="sourcePoint" />
            <mxPoint x="210" y="150" as="targetPoint" />
          </mxGeometry>
        </mxCell>
        <mxCell id="PoQftCL3mDEPjElPRBC5-4" value="" style="rounded=0;whiteSpace=wrap;html=1;fillColor=#000000;" vertex="1" parent="1">
          <mxGeometry x="210" y="150" width="10" height="110" as="geometry" />
        </mxCell>
        <mxCell id="PoQftCL3mDEPjElPRBC5-5" value="Website" style="ellipse;whiteSpace=wrap;html=1;aspect=fixed;" vertex="1" parent="1">
          <mxGeometry x="175" y="50" width="80" height="80" as="geometry" />
        </mxCell>
        <mxCell id="PoQftCL3mDEPjElPRBC5-6" value="" style="endArrow=classic;html=1;rounded=0;exitX=0.75;exitY=1;exitDx=0;exitDy=0;strokeWidth=2;entryX=1.218;entryY=0.157;entryDx=0;entryDy=0;entryPerimeter=0;" edge="1" parent="1" source="PoQftCL3mDEPjElPRBC5-4" target="PoQftCL3mDEPjElPRBC5-2">
          <mxGeometry width="50" height="50" relative="1" as="geometry">
            <mxPoint x="230" y="260" as="sourcePoint" />
            <mxPoint x="70" y="260" as="targetPoint" />
          </mxGeometry>
        </mxCell>
        <mxCell id="PoQftCL3mDEPjElPRBC5-7" value="Login" style="text;html=1;strokeColor=none;fillColor=none;align=center;verticalAlign=middle;whiteSpace=wrap;rounded=0;" vertex="1" parent="1">
          <mxGeometry x="110" y="160" width="60" height="30" as="geometry" />
        </mxCell>
        <mxCell id="PoQftCL3mDEPjElPRBC5-8" value="Menampilkan Dashboard" style="text;html=1;strokeColor=none;fillColor=none;align=center;verticalAlign=middle;whiteSpace=wrap;rounded=0;" vertex="1" parent="1">
          <mxGeometry x="110" y="260" width="60" height="30" as="geometry" />
        </mxCell>
        <mxCell id="PoQftCL3mDEPjElPRBC5-9" value="" style="endArrow=classic;html=1;rounded=0;strokeWidth=2;entryX=0;entryY=0;entryDx=0;entryDy=0;" edge="1" parent="1" target="PoQftCL3mDEPjElPRBC5-10">
          <mxGeometry width="50" height="50" relative="1" as="geometry">
            <mxPoint x="60" y="350" as="sourcePoint" />
            <mxPoint x="200" y="350" as="targetPoint" />
          </mxGeometry>
        </mxCell>
        <mxCell id="PoQftCL3mDEPjElPRBC5-10" value="" style="rounded=0;whiteSpace=wrap;html=1;fillColor=#000000;" vertex="1" parent="1">
          <mxGeometry x="210" y="350" width="10" height="110" as="geometry" />
        </mxCell>
        <mxCell id="PoQftCL3mDEPjElPRBC5-14" value="Masuk halaman daignosa" style="text;html=1;strokeColor=none;fillColor=none;align=center;verticalAlign=middle;whiteSpace=wrap;rounded=0;" vertex="1" parent="1">
          <mxGeometry x="85" y="310" width="110" height="30" as="geometry" />
        </mxCell>
        <mxCell id="PoQftCL3mDEPjElPRBC5-15" value="" style="endArrow=classic;html=1;rounded=0;exitX=0.75;exitY=1;exitDx=0;exitDy=0;strokeWidth=2;entryX=1.154;entryY=0.442;entryDx=0;entryDy=0;entryPerimeter=0;" edge="1" parent="1" target="PoQftCL3mDEPjElPRBC5-2">
          <mxGeometry width="50" height="50" relative="1" as="geometry">
            <mxPoint x="220" y="460" as="sourcePoint" />
            <mxPoint x="72" y="460" as="targetPoint" />
          </mxGeometry>
        </mxCell>
        <mxCell id="PoQftCL3mDEPjElPRBC5-16" value="Tampil Halaman&lt;br&gt;Diagnosa" style="text;html=1;strokeColor=none;fillColor=none;align=center;verticalAlign=middle;whiteSpace=wrap;rounded=0;" vertex="1" parent="1">
          <mxGeometry x="90" y="420" width="110" height="30" as="geometry" />
        </mxCell>
        <mxCell id="PoQftCL3mDEPjElPRBC5-18" value="" style="endArrow=classic;html=1;rounded=0;strokeWidth=2;entryX=0;entryY=0;entryDx=0;entryDy=0;entryPerimeter=0;" edge="1" parent="1" target="PoQftCL3mDEPjElPRBC5-20">
          <mxGeometry width="50" height="50" relative="1" as="geometry">
            <mxPoint x="55" y="540" as="sourcePoint" />
            <mxPoint x="205" y="540" as="targetPoint" />
          </mxGeometry>
        </mxCell>
        <mxCell id="PoQftCL3mDEPjElPRBC5-19" value="Input kerusakan (teks)" style="text;html=1;strokeColor=none;fillColor=none;align=center;verticalAlign=middle;whiteSpace=wrap;rounded=0;" vertex="1" parent="1">
          <mxGeometry x="90" y="500" width="110" height="30" as="geometry" />
        </mxCell>
        <mxCell id="PoQftCL3mDEPjElPRBC5-20" value="" style="rounded=0;whiteSpace=wrap;html=1;fillColor=#000000;" vertex="1" parent="1">
          <mxGeometry x="210" y="540" width="10" height="40" as="geometry" />
        </mxCell>
        <mxCell id="PoQftCL3mDEPjElPRBC5-24" value="" style="endArrow=classic;html=1;rounded=0;strokeWidth=2;" edge="1" parent="1">
          <mxGeometry width="50" height="50" relative="1" as="geometry">
            <mxPoint x="210" y="580" as="sourcePoint" />
            <mxPoint x="340" y="580" as="targetPoint" />
          </mxGeometry>
        </mxCell>
        <mxCell id="PoQftCL3mDEPjElPRBC5-25" value="Mengirim identifikasi" style="text;html=1;strokeColor=none;fillColor=none;align=center;verticalAlign=middle;whiteSpace=wrap;rounded=0;" vertex="1" parent="1">
          <mxGeometry x="220" y="545" width="110" height="30" as="geometry" />
        </mxCell>
        <mxCell id="PoQftCL3mDEPjElPRBC5-26" value="" style="rounded=0;whiteSpace=wrap;html=1;fillColor=#000000;" vertex="1" parent="1">
          <mxGeometry x="340" y="580" width="10" height="40" as="geometry" />
        </mxCell>
        <mxCell id="PoQftCL3mDEPjElPRBC5-27" value="Mengambil nilai&lt;br&gt;CF" style="text;html=1;strokeColor=none;fillColor=none;align=center;verticalAlign=middle;whiteSpace=wrap;rounded=0;" vertex="1" parent="1">
          <mxGeometry x="350" y="585" width="110" height="30" as="geometry" />
        </mxCell>
        <mxCell id="PoQftCL3mDEPjElPRBC5-28" value="" style="endArrow=classic;html=1;rounded=0;strokeWidth=2;" edge="1" parent="1">
          <mxGeometry width="50" height="50" relative="1" as="geometry">
            <mxPoint x="340" y="620" as="sourcePoint" />
            <mxPoint x="470" y="620" as="targetPoint" />
          </mxGeometry>
        </mxCell>
        <mxCell id="PoQftCL3mDEPjElPRBC5-29" value="" style="rounded=0;whiteSpace=wrap;html=1;fillColor=#000000;" vertex="1" parent="1">
          <mxGeometry x="470" y="620" width="10" height="40" as="geometry" />
        </mxCell>
        <mxCell id="PoQftCL3mDEPjElPRBC5-33" value="" style="endArrow=classic;html=1;rounded=0;exitX=0.75;exitY=1;exitDx=0;exitDy=0;strokeWidth=2;" edge="1" parent="1">
          <mxGeometry width="50" height="50" relative="1" as="geometry">
            <mxPoint x="480" y="661" as="sourcePoint" />
            <mxPoint x="350" y="660" as="targetPoint" />
          </mxGeometry>
        </mxCell>
        <mxCell id="PoQftCL3mDEPjElPRBC5-34" value="" style="rounded=0;whiteSpace=wrap;html=1;fillColor=#000000;" vertex="1" parent="1">
          <mxGeometry x="340" y="660" width="10" height="40" as="geometry" />
        </mxCell>
        <mxCell id="PoQftCL3mDEPjElPRBC5-35" value="Mengirim nilai CF" style="text;html=1;strokeColor=none;fillColor=none;align=center;verticalAlign=middle;whiteSpace=wrap;rounded=0;" vertex="1" parent="1">
          <mxGeometry x="360" y="630" width="110" height="30" as="geometry" />
        </mxCell>
        <mxCell id="PoQftCL3mDEPjElPRBC5-36" value="" style="endArrow=classic;html=1;rounded=0;strokeWidth=2;entryX=0.799;entryY=1.001;entryDx=0;entryDy=0;entryPerimeter=0;" edge="1" parent="1" target="PoQftCL3mDEPjElPRBC5-37">
          <mxGeometry width="50" height="50" relative="1" as="geometry">
            <mxPoint x="350" y="700" as="sourcePoint" />
            <mxPoint x="480" y="700" as="targetPoint" />
            <Array as="points">
              <mxPoint x="460" y="700" />
            </Array>
          </mxGeometry>
        </mxCell>
        <mxCell id="PoQftCL3mDEPjElPRBC5-37" value="Mengambil data kerusakan yang cocok" style="text;html=1;strokeColor=none;fillColor=none;align=center;verticalAlign=middle;whiteSpace=wrap;rounded=0;" vertex="1" parent="1">
          <mxGeometry x="350" y="670" width="150" height="30" as="geometry" />
        </mxCell>
        <mxCell id="PoQftCL3mDEPjElPRBC5-38" value="" style="rounded=0;whiteSpace=wrap;html=1;fillColor=#000000;" vertex="1" parent="1">
          <mxGeometry x="470" y="700" width="10" height="40" as="geometry" />
        </mxCell>
        <mxCell id="PoQftCL3mDEPjElPRBC5-41" value="" style="endArrow=classic;html=1;rounded=0;strokeWidth=2;" edge="1" parent="1">
          <mxGeometry width="50" height="50" relative="1" as="geometry">
            <mxPoint x="330" y="660" as="sourcePoint" />
            <mxPoint x="330" y="700" as="targetPoint" />
            <Array as="points">
              <mxPoint x="290" y="660" />
              <mxPoint x="290" y="700" />
            </Array>
          </mxGeometry>
        </mxCell>
        <mxCell id="PoQftCL3mDEPjElPRBC5-42" value="Mengirim nilai CF" style="text;html=1;strokeColor=none;fillColor=none;align=center;verticalAlign=middle;whiteSpace=wrap;rounded=0;" vertex="1" parent="1">
          <mxGeometry x="370" y="640" width="110" height="30" as="geometry" />
        </mxCell>
        <mxCell id="PoQftCL3mDEPjElPRBC5-45" value="" style="endArrow=classic;html=1;rounded=0;exitX=0.75;exitY=1;exitDx=0;exitDy=0;strokeWidth=2;" edge="1" parent="1">
          <mxGeometry width="50" height="50" relative="1" as="geometry">
            <mxPoint x="480" y="740" as="sourcePoint" />
            <mxPoint x="350" y="739" as="targetPoint" />
          </mxGeometry>
        </mxCell>
        <mxCell id="PoQftCL3mDEPjElPRBC5-46" value="" style="rounded=0;whiteSpace=wrap;html=1;fillColor=#000000;" vertex="1" parent="1">
          <mxGeometry x="340" y="740" width="10" height="40" as="geometry" />
        </mxCell>
        <mxCell id="PoQftCL3mDEPjElPRBC5-47" value="Mengirim data kerusakan" style="text;html=1;strokeColor=none;fillColor=none;align=center;verticalAlign=middle;whiteSpace=wrap;rounded=0;" vertex="1" parent="1">
          <mxGeometry x="320" y="700" width="150" height="50" as="geometry" />
        </mxCell>
        <mxCell id="PoQftCL3mDEPjElPRBC5-51" value="" style="endArrow=classic;html=1;rounded=0;exitX=0.75;exitY=1;exitDx=0;exitDy=0;strokeWidth=2;" edge="1" parent="1">
          <mxGeometry width="50" height="50" relative="1" as="geometry">
            <mxPoint x="350" y="781" as="sourcePoint" />
            <mxPoint x="220" y="780" as="targetPoint" />
          </mxGeometry>
        </mxCell>
        <mxCell id="PoQftCL3mDEPjElPRBC5-52" value="" style="rounded=0;whiteSpace=wrap;html=1;fillColor=#000000;" vertex="1" parent="1">
          <mxGeometry x="210" y="780" width="10" height="40" as="geometry" />
        </mxCell>
        <mxCell id="PoQftCL3mDEPjElPRBC5-53" value="mengirim data hasil" style="text;html=1;strokeColor=none;fillColor=none;align=center;verticalAlign=middle;whiteSpace=wrap;rounded=0;" vertex="1" parent="1">
          <mxGeometry x="210" y="740" width="150" height="50" as="geometry" />
        </mxCell>
        <mxCell id="PoQftCL3mDEPjElPRBC5-54" value="menampilkan data hasil" style="text;html=1;strokeColor=none;fillColor=none;align=center;verticalAlign=middle;whiteSpace=wrap;rounded=0;" vertex="1" parent="1">
          <mxGeometry x="60" y="780" width="160" height="50" as="geometry" />
        </mxCell>
        <mxCell id="PoQftCL3mDEPjElPRBC5-56" value="" style="endArrow=classic;html=1;rounded=0;exitX=0.75;exitY=1;exitDx=0;exitDy=0;strokeWidth=2;" edge="1" parent="1">
          <mxGeometry width="50" height="50" relative="1" as="geometry">
            <mxPoint x="210" y="821" as="sourcePoint" />
            <mxPoint x="60" y="820" as="targetPoint" />
            <Array as="points">
              <mxPoint x="70" y="820" />
            </Array>
          </mxGeometry>
        </mxCell>
        <mxCell id="PoQftCL3mDEPjElPRBC5-57" value="Sistem" style="ellipse;whiteSpace=wrap;html=1;aspect=fixed;fixDash=0;" vertex="1" parent="1">
          <mxGeometry x="305" y="50" width="80" height="80" as="geometry" />
        </mxCell>
        <mxCell id="PoQftCL3mDEPjElPRBC5-58" value="" style="endArrow=none;dashed=1;html=1;dashPattern=1 3;strokeWidth=2;rounded=0;" edge="1" parent="1">
          <mxGeometry width="50" height="50" relative="1" as="geometry">
            <mxPoint x="215" y="350" as="sourcePoint" />
            <mxPoint x="215" y="260" as="targetPoint" />
          </mxGeometry>
        </mxCell>
        <mxCell id="PoQftCL3mDEPjElPRBC5-59" value="" style="endArrow=none;dashed=1;html=1;dashPattern=1 3;strokeWidth=2;rounded=0;exitX=0.97;exitY=0.04;exitDx=0;exitDy=0;exitPerimeter=0;" edge="1" parent="1" source="PoQftCL3mDEPjElPRBC5-54">
          <mxGeometry width="50" height="50" relative="1" as="geometry">
            <mxPoint x="214.52" y="540" as="sourcePoint" />
            <mxPoint x="214.52" y="450" as="targetPoint" />
          </mxGeometry>
        </mxCell>
        <mxCell id="PoQftCL3mDEPjElPRBC5-65" value="Database" style="ellipse;whiteSpace=wrap;html=1;aspect=fixed;fixDash=0;" vertex="1" parent="1">
          <mxGeometry x="435" y="50" width="80" height="80" as="geometry" />
        </mxCell>
        <mxCell id="PoQftCL3mDEPjElPRBC5-66" value="" style="endArrow=none;dashed=1;html=1;dashPattern=1 3;strokeWidth=2;rounded=0;exitX=0.97;exitY=0.04;exitDx=0;exitDy=0;exitPerimeter=0;" edge="1" parent="1">
          <mxGeometry width="50" height="50" relative="1" as="geometry">
            <mxPoint x="344.95000000000005" y="782" as="sourcePoint" />
            <mxPoint x="345" y="150" as="targetPoint" />
          </mxGeometry>
        </mxCell>
        <mxCell id="PoQftCL3mDEPjElPRBC5-67" value="" style="endArrow=none;dashed=1;html=1;dashPattern=1 3;strokeWidth=2;rounded=0;exitX=0.547;exitY=1.06;exitDx=0;exitDy=0;exitPerimeter=0;" edge="1" parent="1" source="PoQftCL3mDEPjElPRBC5-38">
          <mxGeometry width="50" height="50" relative="1" as="geometry">
            <mxPoint x="480" y="740" as="sourcePoint" />
            <mxPoint x="475" y="160" as="targetPoint" />
            <Array as="points" />
          </mxGeometry>
        </mxCell>
      </root>
    </mxGraphModel>
  </diagram>
</mxfile>
